# Blender v2.92.0 OBJ File: 'types_cylinder.blend'
# www.blender.org
mtllib types_cylinder.mtl
o Cube
v 0.742932 1.000000 -0.760255
v 0.742932 -1.000000 -0.760255
v 0.742932 1.000000 0.760255
v 0.742932 -1.000000 0.760255
v -0.742932 1.000000 -0.760255
v -0.742932 -1.000000 -0.760255
v -0.742932 1.000000 0.760255
v -0.742932 -1.000000 0.760255
v -1.000000 -1.000000 0.000000
v 0.000000 -1.000000 -1.000000
v 0.742932 0.000000 -0.760255
v -0.742932 0.000000 0.760255
v 0.742932 0.000000 0.760255
v -0.742932 0.000000 -0.760255
v 0.000000 1.000000 1.000000
v 1.000000 1.000000 0.000000
v 0.000000 -1.000000 1.000000
v -1.000000 1.000000 0.000000
v 0.000000 1.000000 -1.000000
v 1.000000 -1.000000 0.000000
v 0.000000 0.000000 -1.000000
v 1.000000 0.000000 0.000000
v 0.000000 -1.000000 0.000000
v -1.000000 0.000000 0.000000
v 0.000000 0.000000 1.000000
v 0.000000 1.000000 0.000000
v -0.906254 -1.000000 0.352856
v -0.477746 -1.000000 -0.929446
v 0.742932 -0.500000 -0.760255
v -0.742932 0.500000 0.760255
v 0.742932 -0.500000 0.760255
v -0.742932 -0.500000 -0.760255
v -0.477746 1.000000 0.929446
v 0.906254 1.000000 0.352856
v 0.477746 -1.000000 0.929446
v -0.906254 1.000000 -0.352856
v 0.477746 1.000000 -0.929446
v 0.906254 -1.000000 -0.352856
v -0.906254 -1.000000 -0.352856
v 0.477746 -1.000000 -0.929446
v 0.742932 0.500000 -0.760255
v -0.742932 -0.500000 0.760255
v 0.742932 0.500000 0.760255
v -0.742932 0.500000 -0.760255
v 0.477746 1.000000 0.929446
v 0.906254 1.000000 -0.352856
v -0.477746 -1.000000 0.929446
v -0.906254 1.000000 0.352856
v -0.477746 1.000000 -0.929446
v 0.906254 -1.000000 0.352856
v 0.477746 0.000000 -0.929446
v -0.477746 0.000000 -0.929446
v 0.000000 -0.500000 -1.000000
v 0.000000 0.500000 -1.000000
v 0.906254 0.000000 0.352856
v 0.906254 0.000000 -0.352856
v 1.000000 -0.500000 0.000000
v 1.000000 0.500000 0.000000
v 0.000000 -1.000000 0.500000
v 0.000000 -1.000000 -0.500000
v -0.500000 -1.000000 0.000000
v 0.500000 -1.000000 0.000000
v -0.906254 0.000000 -0.352856
v -0.906254 0.000000 0.352856
v -1.000000 -0.500000 0.000000
v -1.000000 0.500000 0.000000
v -0.477746 0.000000 0.929446
v 0.477746 0.000000 0.929446
v 0.000000 -0.500000 1.000000
v 0.000000 0.500000 1.000000
v 0.000000 1.000000 0.500000
v 0.000000 1.000000 -0.500000
v 0.500000 1.000000 0.000000
v -0.500000 1.000000 0.000000
v -0.500000 1.000000 -0.500000
v 0.500000 1.000000 -0.500000
v 0.500000 1.000000 0.500000
v 0.477746 0.500000 0.929446
v 0.477746 -0.500000 0.929446
v -0.477746 -0.500000 0.929446
v -0.906254 0.500000 0.352856
v -0.906254 -0.500000 0.352856
v -0.906254 -0.500000 -0.352856
v 0.500000 -1.000000 -0.500000
v -0.500000 -1.000000 -0.500000
v -0.500000 -1.000000 0.500000
v 0.906254 0.500000 -0.352856
v 0.906254 -0.500000 -0.352856
v 0.906254 -0.500000 0.352856
v -0.477746 0.500000 -0.929446
v -0.477746 -0.500000 -0.929446
v 0.477746 -0.500000 -0.929446
v 0.477746 0.500000 -0.929446
v 0.906254 0.500000 0.352856
v 0.500000 -1.000000 0.500000
v -0.906254 0.500000 -0.352856
v -0.477746 0.500000 0.929446
v -0.500000 1.000000 0.500000
vt 0.812500 0.687500
vt 0.875000 0.669107
vt 0.875000 0.750000
vt 0.830893 0.750000
vt 0.562500 0.955893
vt 0.625000 0.955893
vt 0.625000 1.000000
vt 0.562500 1.000000
vt 0.562500 0.169107
vt 0.625000 0.169107
vt 0.625000 0.250000
vt 0.562500 0.250000
vt 0.312500 0.687500
vt 0.375000 0.669107
vt 0.375000 0.750000
vt 0.330893 0.750000
vt 0.562500 0.669107
vt 0.625000 0.669107
vt 0.625000 0.750000
vt 0.562500 0.750000
vt 0.562500 0.455893
vt 0.625000 0.455893
vt 0.625000 0.500000
vt 0.562500 0.500000
vt 0.437500 0.455893
vt 0.500000 0.455893
vt 0.500000 0.500000
vt 0.437500 0.500000
vt 0.437500 0.294107
vt 0.500000 0.294107
vt 0.500000 0.375000
vt 0.437500 0.375000
vt 0.562500 0.294107
vt 0.625000 0.294107
vt 0.625000 0.375000
vt 0.562500 0.375000
vt 0.437500 0.669107
vt 0.500000 0.669107
vt 0.500000 0.750000
vt 0.437500 0.750000
vt 0.437500 0.580893
vt 0.500000 0.580893
vt 0.500000 0.625000
vt 0.437500 0.625000
vt 0.562500 0.580893
vt 0.625000 0.580893
vt 0.625000 0.625000
vt 0.562500 0.625000
vt 0.187500 0.687500
vt 0.250000 0.687500
vt 0.250000 0.750000
vt 0.169107 0.750000
vt 0.187500 0.562500
vt 0.250000 0.562500
vt 0.250000 0.625000
vt 0.187500 0.625000
vt 0.312500 0.562500
vt 0.375000 0.580893
vt 0.375000 0.625000
vt 0.312500 0.625000
vt 0.437500 0.169107
vt 0.500000 0.169107
vt 0.500000 0.250000
vt 0.437500 0.250000
vt 0.437500 0.080893
vt 0.500000 0.080893
vt 0.500000 0.125000
vt 0.437500 0.125000
vt 0.562500 0.080893
vt 0.625000 0.080893
vt 0.625000 0.125000
vt 0.562500 0.125000
vt 0.437500 0.955893
vt 0.500000 0.955893
vt 0.500000 1.000000
vt 0.437500 1.000000
vt 0.437500 0.794107
vt 0.500000 0.794107
vt 0.500000 0.875000
vt 0.437500 0.875000
vt 0.562500 0.794107
vt 0.625000 0.794107
vt 0.625000 0.875000
vt 0.562500 0.875000
vt 0.687500 0.687500
vt 0.750000 0.687500
vt 0.750000 0.750000
vt 0.669107 0.750000
vt 0.687500 0.562500
vt 0.750000 0.562500
vt 0.750000 0.625000
vt 0.687500 0.625000
vt 0.812500 0.562500
vt 0.875000 0.580893
vt 0.875000 0.625000
vt 0.812500 0.625000
vt 0.750000 0.500000
vt 0.830893 0.500000
vt 0.875000 0.500000
vt 0.669107 0.500000
vt 0.375000 0.794107
vt 0.375000 0.875000
vt 0.375000 0.955893
vt 0.375000 1.000000
vt 0.500000 0.000000
vt 0.562500 0.000000
vt 0.625000 0.000000
vt 0.375000 0.080893
vt 0.375000 0.125000
vt 0.375000 0.000000
vt 0.437500 0.000000
vt 0.375000 0.169107
vt 0.375000 0.250000
vt 0.250000 0.500000
vt 0.330893 0.500000
vt 0.375000 0.500000
vt 0.125000 0.580893
vt 0.125000 0.625000
vt 0.125000 0.500000
vt 0.169107 0.500000
vt 0.125000 0.669107
vt 0.125000 0.750000
vt 0.375000 0.294107
vt 0.375000 0.375000
vt 0.375000 0.455893
vn 0.0000 1.0000 0.0000
vn -0.5379 0.0000 0.8430
vn -0.9282 0.0000 -0.3721
vn 0.0000 -1.0000 0.0000
vn 0.9282 0.0000 0.3721
vn 0.5379 0.0000 -0.8430
vn -0.1461 0.0000 -0.9893
vn 0.9665 0.0000 -0.2568
vn -0.9665 0.0000 0.2568
vn 0.1461 0.0000 0.9893
vn 0.5379 0.0000 0.8430
vn -0.1461 0.0000 0.9893
vn -0.9282 0.0000 0.3721
vn -0.9665 0.0000 -0.2568
vn 0.9282 0.0000 -0.3721
vn 0.9665 0.0000 0.2568
vn -0.5379 0.0000 -0.8430
vn 0.1461 0.0000 -0.9893
usemtl Material
s off
f 98/1/1 48/2/1 7/3/1 33/4/1
f 97/5/2 33/6/2 7/7/2 30/8/2
f 96/9/3 36/10/3 5/11/3 44/12/3
f 95/13/4 50/14/4 4/15/4 35/16/4
f 94/17/5 34/18/5 3/19/5 43/20/5
f 93/21/6 37/22/6 1/23/6 41/24/6
f 92/25/6 51/26/6 11/27/6 29/28/6
f 91/29/7 52/30/7 21/31/7 53/32/7
f 90/33/7 49/34/7 19/35/7 54/36/7
f 89/37/5 55/38/5 13/39/5 31/40/5
f 88/41/8 56/42/8 22/43/8 57/44/8
f 87/45/8 46/46/8 16/47/8 58/48/8
f 86/49/4 59/50/4 17/51/4 47/52/4
f 85/53/4 60/54/4 23/55/4 61/56/4
f 84/57/4 38/58/4 20/59/4 62/60/4
f 83/61/3 63/62/3 14/63/3 32/64/3
f 82/65/9 64/66/9 24/67/9 65/68/9
f 81/69/9 48/70/9 18/71/9 66/72/9
f 80/73/2 67/74/2 12/75/2 42/76/2
f 79/77/10 68/78/10 25/79/10 69/80/10
f 78/81/10 45/82/10 15/83/10 70/84/10
f 77/85/1 71/86/1 15/87/1 45/88/1
f 76/89/1 72/90/1 26/91/1 73/92/1
f 75/93/1 36/94/1 18/95/1 74/96/1
f 72/90/1 75/93/1 74/96/1 26/91/1
f 19/97/1 49/98/1 75/93/1 72/90/1
f 49/98/1 5/99/1 36/94/1 75/93/1
f 46/46/1 76/89/1 73/92/1 16/47/1
f 1/23/1 37/100/1 76/89/1 46/46/1
f 37/100/1 19/97/1 72/90/1 76/89/1
f 34/18/1 77/85/1 45/88/1 3/19/1
f 16/47/1 73/92/1 77/85/1 34/18/1
f 73/92/1 26/91/1 71/86/1 77/85/1
f 68/78/10 78/81/10 70/84/10 25/79/10
f 13/39/11 43/20/11 78/81/11 68/78/11
f 43/20/11 3/19/11 45/82/11 78/81/11
f 35/101/10 79/77/10 69/80/10 17/102/10
f 4/15/11 31/40/11 79/77/11 35/101/11
f 31/40/11 13/39/11 68/78/11 79/77/11
f 47/103/2 80/73/2 42/76/2 8/104/2
f 17/102/12 69/80/12 80/73/12 47/103/12
f 69/80/12 25/79/12 67/74/12 80/73/12
f 64/66/9 81/69/9 66/72/9 24/67/9
f 12/105/13 30/106/13 81/69/13 64/66/13
f 30/106/13 7/107/13 48/70/13 81/69/13
f 27/108/9 82/65/9 65/68/9 9/109/9
f 8/110/13 42/111/13 82/65/13 27/108/13
f 42/111/13 12/105/13 64/66/13 82/65/13
f 39/112/3 83/61/3 32/64/3 6/113/3
f 9/109/14 65/68/14 83/61/14 39/112/14
f 65/68/14 24/67/14 63/62/14 83/61/14
f 60/54/4 84/57/4 62/60/4 23/55/4
f 10/114/4 40/115/4 84/57/4 60/54/4
f 40/115/4 2/116/4 38/58/4 84/57/4
f 39/117/4 85/53/4 61/56/4 9/118/4
f 6/119/4 28/120/4 85/53/4 39/117/4
f 28/120/4 10/114/4 60/54/4 85/53/4
f 27/121/4 86/49/4 47/52/4 8/122/4
f 9/118/4 61/56/4 86/49/4 27/121/4
f 61/56/4 23/55/4 59/50/4 86/49/4
f 56/42/8 87/45/8 58/48/8 22/43/8
f 11/27/15 41/24/15 87/45/15 56/42/15
f 41/24/15 1/23/15 46/46/15 87/45/15
f 38/58/8 88/41/8 57/44/8 20/59/8
f 2/116/15 29/28/15 88/41/15 38/58/15
f 29/28/15 11/27/15 56/42/15 88/41/15
f 50/14/5 89/37/5 31/40/5 4/15/5
f 20/59/16 57/44/16 89/37/16 50/14/16
f 57/44/16 22/43/16 55/38/16 89/37/16
f 52/30/7 90/33/7 54/36/7 21/31/7
f 14/63/17 44/12/17 90/33/17 52/30/17
f 44/12/17 5/11/17 49/34/17 90/33/17
f 28/123/7 91/29/7 53/32/7 10/124/7
f 6/113/17 32/64/17 91/29/17 28/123/17
f 32/64/17 14/63/17 52/30/17 91/29/17
f 40/125/6 92/25/6 29/28/6 2/116/6
f 10/124/18 53/32/18 92/25/18 40/125/18
f 53/32/18 21/31/18 51/26/18 92/25/18
f 51/26/6 93/21/6 41/24/6 11/27/6
f 21/31/18 54/36/18 93/21/18 51/26/18
f 54/36/18 19/35/18 37/22/18 93/21/18
f 55/38/5 94/17/5 43/20/5 13/39/5
f 22/43/16 58/48/16 94/17/16 55/38/16
f 58/48/16 16/47/16 34/18/16 94/17/16
f 59/50/4 95/13/4 35/16/4 17/51/4
f 23/55/4 62/60/4 95/13/4 59/50/4
f 62/60/4 20/59/4 50/14/4 95/13/4
f 63/62/3 96/9/3 44/12/3 14/63/3
f 24/67/14 66/72/14 96/9/14 63/62/14
f 66/72/14 18/71/14 36/10/14 96/9/14
f 67/74/2 97/5/2 30/8/2 12/75/2
f 25/79/12 70/84/12 97/5/12 67/74/12
f 70/84/12 15/83/12 33/6/12 97/5/12
f 71/86/1 98/1/1 33/4/1 15/87/1
f 26/91/1 74/96/1 98/1/1 71/86/1
f 74/96/1 18/95/1 48/2/1 98/1/1
